<?xml version="1.0" encoding="utf-8"?>
<!-- Generator: Adobe Illustrator 28.2.0, SVG Export Plug-In . SVG Version: 6.00 Build 0)  -->
<svg version="1.1" id="Layer_1" xmlns="http://www.w3.org/2000/svg" xmlns:xlink="http://www.w3.org/1999/xlink" x="0px" y="0px"
	 viewBox="0 0 844.5 459.1" style="enable-background:new 0 0 844.5 459.1;" xml:space="preserve">
<style type="text/css">
	.st0{fill:#164E73;}
</style>
<g id="dNJA4o_00000024000238683312566770000015370040135129991593_">
	<g>
		<g>
			<path class="st0" d="M387.2,443.1c-2.8,0-4.6,0-6.4,0c-110.8,0-221.7-0.3-332.5,0.2c-24.6,0.1-36.7-18.6-36.6-36.9
				c0.5-76.3,0.2-152.7,0.2-229c0-16.5,9.6-29.6,24.5-33.6c3.6-1,7.3-1,10.9-1c166.3,0,332.7,0,499,0c1.6,0,3.3,0,5.2,0
				c0,22.5,0,44.6,0,67c-5.7,0-11.3,0-17.3,0c0,8.6,0,16.7,0,25.3c5.6,0,11.3,0,16.6,0c1.5,2,0.9,3.9,0.9,5.6c0,28.8,0,57.7,0,86.5
				c0,5.3,0.3,10.6,1.6,15.8c5.3,20.3,19.9,31.8,40.9,32c6.1,0.1,12.3,0,18.6,0c0-9.5,0-18.6,0-28.1c-3.8,0-7.4,0-11,0
				c-12.8-0.1-18.8-6.1-18.9-19.2c-0.1-27.5,0-55,0-82.5c0-3.1,0-6.3,0-9.9c10.1,0,19.8,0,29.9,0c0-8.5,0-16.6,0-25.1
				c-9.7,0-19.4,0-29.5,0c0-22.5,0-44.6,0-66.8c1.5-1.2,3.4-0.6,5.1-0.6c67.8,0,135.7,0,203.5,0c22.5,0,35.9,13.6,35.9,36.1
				c0,76-0.2,152,0.2,228c0.1,17.8-12.1,36.4-36.1,36.4c-122.5-0.4-245-0.2-367.5-0.2c-1.8,0-3.6,0-5.6,0c0-28.1,0-55.7,0-83.4
				c1.3-0.6,1.6,0.7,2.2,1.3c28,29.7,76.9,18.2,88.8-21c4.9-16,5.3-32.4,5.2-49c0-15.3-0.8-30.6-5.1-45.5c-9-31.2-33.8-39.8-59.1-37
				c-14.3,1.6-19.9,5.3-32.8,18.5c0-5.9,0-11.2,0-16.8c-10.5,0-20.4,0-30.9,0C387.2,287.8,387.2,365.2,387.2,443.1z M763.6,291.8
				c-0.4-9.9-0.7-20.5-2.6-31.1c-5.7-30.3-28.9-51.3-58.2-52.5c-33.6-1.4-58.1,16.2-66,48.1c-5.4,21.8-5.2,44-1.5,66
				c5.3,31.8,25.1,50.9,56.3,54.4c28.7,3.2,56.1-11.1,66.5-41.3C762.8,321.4,763.2,307,763.6,291.8z M202.7,375
				c0-55.2,0-109.9,0-164.7c-10.4,0-20.5,0-30.9,0c0,2,0,3.8,0,5.6c0,30.7,0,61.3,0,92c0,4.3-0.3,8.7-1,12.9
				c-2.6,15.5-13.8,25.7-29.2,26.5c-16.8,0.8-28.2-7.2-32.3-22.8c-1.4-5.4-1.5-10.8-1.5-16.4c0-30.8,0-61.6,0-92.5
				c0-1.8,0.6-3.6-0.6-5.4c-10.1,0-20.2,0-30.4,0c-0.2,0.6-0.5,1.1-0.5,1.6c0.3,38.5-1.8,77,0.8,115.4c2.8,40.8,37.1,54.5,66,48.3
				c11.2-2.4,20.5-8,29.2-17.1c0,6.3,0,11.3,0,16.5C182.8,375,192.6,375,202.7,375z M228.7,353.3c7.2,7.4,15,13.3,24.1,16.7
				c23.7,8.8,47.8,10,71.9,2.2c21.9-7.1,33.3-22.7,34.8-45.5c1.3-21.2-8.6-37.2-27.7-44.3c-4-1.5-8.2-2.8-12.5-3.2
				c-11.9-1.4-23.8-2.4-35.7-4c-12.8-1.8-18.4-9.4-16.6-21.9c1.3-8.9,7.1-14,15.3-15.8c18.3-3.9,35.7-1.5,51.6,10
				c6.4-6.8,12.8-13.7,19.3-20.7c-4.6-4.7-9.8-8-15.5-10.5c-21-9-42.8-11-64.9-4.9c-22.7,6.2-35.7,23.3-36.3,46.2
				c-0.6,22.2,9.1,36.7,29,43c3.8,1.2,7.7,2.2,11.6,2.6c11.9,1.5,23.8,2.4,35.7,4.1c7.5,1.1,13.4,4.8,15.3,13
				c2.8,11.7-2.7,21.4-14.9,25.7c-10.8,3.8-21.9,3.5-33.1,1.7c-11.9-2-22.3-7.1-30.9-16C242.3,339.1,235.6,346.1,228.7,353.3z"/>
			<path class="st0" d="M483.9,289.5c-0.1,14.5-0.4,25.9-3.9,36.8c-4.6,14.4-13.6,21-28.4,21.1c-15.1,0.1-24.4-6.4-29.2-20.8
				c-2.8-8.6-3.6-17.5-3.7-26.6c-0.1-13.3-0.4-26.6,3.1-39.7c6.3-24,28.1-25.9,42.4-20.4c11.5,4.4,15.3,14.5,17.6,25.4
				C483.6,274.4,484.1,283.6,483.9,289.5z"/>
			<path d="M532.9,110.7c-2.3,0-4.4,0-6.9,0c0-6.9,0-13.7,0-20.5c-0.3-0.1-0.6-0.2-0.9-0.3c-2.1,4.2-4.1,8.4-6,12.3
				c-1.7,1.1-3.2,0.4-5,0.8c-2.2-4.3-4.3-8.6-7-14.1c0,8,0,14.6,0,21.3c-2.7,1-4.9,0.8-7.4,0.3c0-13,0-25.9,0-39.1c2.3,0,4.4,0,7,0
				c3.1,6.6,6.3,13.5,9.7,20.8c3.3-7.3,6.5-14,9.6-20.9c2.3,0,4.4,0,6.9,0C532.9,84.5,532.9,97.5,532.9,110.7z"/>
			<path d="M141.2,71.4c2.1,0,4.1,0,6.3,0c4.5,7.3,9.1,14.7,14.4,23.3c0-8.5,0-15.6,0-22.7c2.5-1.3,4.8-0.4,7.4-0.8
				c0,13.2,0,26.1,0,39.1c-1.8,1.3-3.8,0.5-6.3,0.6c-4.4-7.1-8.9-14.4-13.4-21.7c-0.3,0-0.6,0-1,0c0,7.1,0,14.1,0,21
				c-2.9,1.1-5,0.8-7.4,0.6C141.2,97.6,141.2,84.6,141.2,71.4z"/>
			<path d="M281.1,110.4c-2.1,0.9-4.1,0.6-6.4,0.3c-4.5-7.3-9.1-14.7-14.5-23.4c0,8.6,0,15.8,0,22.8c-2.5,1.4-4.6,0.8-7.1,0.7
				c0-13.1,0-26.1,0-39.3c1.9,0,3.7,0,6.1,0c4.5,7.2,9.1,14.8,14.5,23.4c0-8.5,0-15.7,0-23c2.6-0.9,4.8-0.5,7.3-0.3
				C281.1,84.5,281.1,97.5,281.1,110.4z"/>
			<path d="M54.2,18c2-0.6,4-0.5,6.2,0c4.5,7.2,9,14.6,13.6,22c0.3-0.1,0.6-0.2,0.8-0.2c0-7.2,0-14.4,0-21.6
				c2.5-0.8,4.6-0.6,7.1-0.2c0,12.9,0,25.8,0,38.8c-2,0.7-4,0.4-6.3,0.2c-4.5-7.3-9.1-14.8-14.5-23.6c0,8.7,0,16,0,23.5
				c-2.6,0-4.5,0-6.9,0C54.2,44.1,54.2,31.3,54.2,18z"/>
			<path d="M364.7,71.4c5.5,0,10.8-0.3,16.1,0.1c5,0.4,8.8,3.3,10,8.4c1.3,5.8,0,10.9-6.1,14c2.7,5.6,5.2,10.9,8,16.7
				c-3,0-5.4,0-8.4,0c-2.3-4.9-4.8-10.1-7.3-15.3c-1.7,0-3.1,0-5,0c0,5,0,9.9,0,15c-2.5,0.9-4.8,0.7-7.3,0.2
				C364.7,97.5,364.7,84.6,364.7,71.4z M372.1,88.5c4-0.6,8.1,1.5,10.9-2.4c1.3-1.8,1.2-3.8-0.2-5.5c-2.9-3.7-6.9-1.8-10.8-2.4
				C372.1,81.8,372.1,84.8,372.1,88.5z"/>
			<path d="M576.3,71.2c4.3,0,8.1,0,11.9,0c8,0,12.1,2.3,14,7.9c2.1,6.3,0.2,11.4-5.7,15c2.6,5.5,5.2,10.8,7.8,16.3
				c-2.9,1.1-5.3,0.3-8.1,0.7c-2.5-5.3-5-10.5-7.5-15.7c-1.6,0-3,0-4.9,0c0,5.1,0,10,0,14.9c-2.6,1.2-4.9,0.5-7.4,0.6
				C576.3,97.6,576.3,84.7,576.3,71.2z M583.9,88.7c4-1,8.2,1.5,10.9-2.7c1.2-1.8,1.1-4-0.3-5.6c-3-3.4-6.9-2.1-10.7-1.8
				C583.9,81.9,583.9,84.9,583.9,88.7z"/>
			<path d="M434.4,111.1c0-13.7,0-26.4,0-39.9c8.6,1.2,18.7-3.6,24.3,5.9c5,8.5,4.8,18.7,0.4,27.3C454,114.5,443.4,110,434.4,111.1z
				 M442.1,78.5c0,8.6,0,16.8,0,25c9.9,0.9,11.8-0.8,11.9-10.4c0-1.3,0-2.7,0-4C453.8,79.5,452.2,77.9,442.1,78.5z"/>
			<path d="M289.3,110.6c0-13,0-25.8,0-39.2c8.4,0.8,17.4-3.1,24.2,5c3.7,4.5,4.2,22.4,1,28C311,110.5,304.5,112.1,289.3,110.6z
				 M297.2,78.7c0,8.3,0,16.6,0,24.9c10,0.5,11.7-1,11.7-10.3c0-1.5,0-3,0-4.5C308.9,79.4,306.7,77.5,297.2,78.7z"/>
			<path d="M617.6,99c0,3.8,0,7.5,0,11.1c-2.3,1.4-4.6,0.8-7.2,0.5c0-12.9,0-25.8,0-39c2.2-0.7,4.4-0.4,7.3-0.1c0,5.1,0,10.1,0,16.5
				c4.9-6.3,8.9-11.5,12.9-16.6c2.8,0,5.5,0,9,0c-4.2,5.4-8.1,10.3-12.2,15.7c4.2,7.6,8.5,15.4,13.1,23.6c-3.2,0-5.6,0-8.6,0
				c-3-5.5-6.1-11.3-9.3-17.1C620.3,94.8,619.4,97,617.6,99z"/>
			<path d="M167,57.2c0-13.3,0-26.1,0-39.5c8.3,0.8,17.4-3.1,24,5.2c3.8,4.8,4.3,22.4,0.7,27.9C185.6,60.5,175.8,56,167,57.2z
				 M174.3,49.6c9.5,1.5,11.7-0.3,12.2-9.3c0.1-2.3,0.1-4.6-0.1-7c-0.6-8.2-4.1-10.5-12.1-8C174.3,33.5,174.3,41.6,174.3,49.6z"/>
			<path d="M338.1,40.9c0,3.1,0,5.9,0,9.1c5.6,0,11,0,16.7,0c0,2.5,0,4.6,0,6.9c-8.1,0-16,0-24.2,0c0-13,0-25.7,0-38.9
				c8,0,16,0,24.2,0c0,2.1,0,4,0,6.4c-5.5,0-10.9,0-16.3,0c-1,3.2-0.6,5.9-0.5,9c4.7,0,9.2,0,13.4,0c1.8,2.3,1,4.4,0.9,6.7
				C347.7,41.3,343,40.1,338.1,40.9z"/>
			<path d="M476.1,78.2c0,3.4,0,6,0,8.9c4.7,0,9.1,0,13.4,0c1.7,2.2,1,4.4,0.9,6.9c-4.6,0-9.2,0-13.9,0c-0.9,3.3-0.5,6.2-0.4,9.6
				c5.7,0,11.1,0,16.5,0c0.7,2.5,0.6,4.6,0.1,7c-7.9,0-15.9,0-24.1,0c0-13.1,0-26,0-39.2c8.1,0,16,0,24.2,0c0,2.1,0,4.2,0,6.7
				C487.2,78.2,481.8,78.2,476.1,78.2z"/>
			<path d="M160.1,24.7c-5.8,0-11.2,0-16.7,0c-0.7,3-0.5,5.6-0.2,8.8c4.8,0,9.5,0,14.1,0c0.8,2.6,0.6,4.5,0.2,6.9
				c-4.6,0-9.2,0-13.8,0c-1.3,3.2-0.4,6.2-0.8,9.6c5.9,0,11.5,0,17.2,0c0,2.6,0,4.7,0,6.9c-8.1,0-15.8,0-24,0c0-13,0-25.9,0-39.1
				c7.8,0,15.6,0,23.6,0C160.9,19.7,160.2,21.8,160.1,24.7z"/>
			<path d="M654.9,91.1c0-2.5-0.2-5,0-7.5c0.6-7.6,5.9-12.5,13.4-12.5c7.7,0,12.8,4.5,13.7,12.2c0.6,5.3,0.6,10.6,0,15.9
				c-0.9,7.2-6.3,12-13.5,11.9c-7.2,0-12.7-4.9-13.5-12.1C654.7,96.5,655,93.8,654.9,91.1C655,91.1,655,91.1,654.9,91.1z
				 M675.1,91.1c-0.2-2.7-0.3-5.6-0.8-8.3c-0.6-3.2-2.8-4.8-6.1-4.6c-3,0.2-4.9,1.8-5.5,4.8c-0.9,5.3-0.9,10.6-0.1,15.9
				c0.5,3.3,2.6,5.1,5.7,5.2c3.2,0.1,5.4-1.8,6-4.9C674.9,96.6,674.9,93.9,675.1,91.1z"/>
			<path d="M131.7,87.2c0,2.6,0,4.5,0,7.1c-4.6,0-9.4,0-14.3,0c0,3.4,0,6.1,0,9.4c5.6,0,11,0,16.5,0c1,2.5,0.8,4.6,0.3,7
				c-8,0-15.8,0-24,0c0-13.1,0-26,0-39.1c8.1,0,16,0,23.9,0c0.9,2.1,0.6,4.1,0.3,6.7c-5.5,0-11.1,0-16.9,0c0,3.2,0,5.8,0,9
				C122.1,87.2,126.8,87.2,131.7,87.2z"/>
			<path d="M798.1,71.4c8.2,0,15.9,0,23.8,0c1,2.2,0.8,4.3,0.2,6.8c-5.5,0-10.9,0-16.6,0c0,3,0,5.6,0,8.6c4.4,1.2,9.3-0.1,14,0.7
				c0.7,2.2,0.6,4.3,0.1,6.8c-4.6,0-9.2,0-14.1,0c0,3.2,0,5.9,0,9c5.5,1.4,11.2-0.2,16.9,0.9c0,2.1,0,4,0,6.4c-8.1,0-16,0-24.2,0
				C798.1,97.7,798.1,84.8,798.1,71.4z"/>
			<path d="M18.8,17.8c2.4,0,4.3,0,7.1,0c0,6.9,0,13.7,0,20.6c0,2-0.2,4,0.1,6c0.5,3.5,2.3,5.8,6.2,5.9c3.9,0.1,5.9-2.2,6.3-5.7
				c0.4-3.4,0.2-7,0.2-10.5c0-5.3,0-10.6,0-15.9c2.4-1,4.5-0.7,6.9-0.4c0,9.8,0.5,19.6-0.2,29.2c-0.5,6.6-7.1,10.5-14.4,10.1
				c-6.6-0.4-12-5-12.2-11.5C18.5,36.6,18.8,27.5,18.8,17.8z"/>
			<path d="M551.8,71.4c1.9,0,3.5,0,5.9,0c4.4,12.7,8.9,25.8,13.5,38.9c-2.8,0.8-5,0.7-7.5,0.2c-0.7-2-1.4-3.9-2.2-6.1
				c-4.1-0.9-8.4-0.1-13-0.5c-0.9,2.3-1.7,4.4-2.5,6.5c-2.4,0.7-4.6,0.6-7.6,0C542.8,97.4,547.3,84.5,551.8,71.4z M559.3,97.1
				c-1.4-4.4-2.6-8.2-4.3-13.3c-1.9,5.1-3.5,8.9-4.2,13.3C553.6,97.1,556.1,97.1,559.3,97.1z"/>
			<path d="M78.7,110.7c-3,0-5.1,0-7.2,0c-1.8-1.8-1.5-4.4-3-6.5c-4.1,0-8.4,0-12.8,0c-0.8,2.1-1.5,4.1-2.3,6.2
				c-2.4,0.7-4.8,0.6-7.7,0.1c4.6-13.2,9-26.2,13.5-39.1c2,0,3.6,0,5.9,0C69.4,84.2,73.9,97.1,78.7,110.7z M66.6,97.1
				c-1.5-4.6-2.7-8.5-4.4-13.6c-1.7,5.2-3.1,9.3-4.5,13.6C60.8,97.1,63.4,97.1,66.6,97.1z"/>
			<path d="M222.3,110.7c-2.4,0-4.7,0-7.6,0c4.6-13.3,9-26.2,13.5-39.1c2.1-0.6,3.8-0.6,6.1,0c4.4,12.8,8.9,25.7,13.4,38.7
				c-2.6,0.9-4.8,0.5-6.9,0.5c-2.1-1.7-1.4-4.8-3.4-6.6c-4,0-8.2,0-12.5,0C224,106.4,223.2,108.5,222.3,110.7z M235.8,97.1
				c-1.5-4.6-2.8-8.6-4.4-13.6c-1.7,5.1-3,9.2-4.5,13.6C230,97.1,232.6,97.1,235.8,97.1z"/>
			<path d="M26.6,96c0,5.3,0,9.7,0,14.2c-2.5,1.1-4.7,0.8-7.3,0.3c0-12.9,0-25.8,0-39.1c5.6,0,11.2-0.5,16.7,0.1
				c6.5,0.7,10.1,6,9.9,12.8c-0.2,6.3-4.5,10.9-10.9,11.5C32.5,96.3,29.8,96,26.6,96z M26.9,89.2c4.1-0.6,8.3,1.3,10.9-2.9
				c1.2-1.8,1.1-4-0.2-5.7c-2.8-3.8-6.9-2.1-10.8-2.4C26.9,82,26.9,85.2,26.9,89.2z"/>
			<path d="M429.3,110.5c-2.9,0.7-5,0.6-7.2,0.2c-1.7-1.8-1.5-4.3-2.8-6.5c-4.1,0-8.2,0-12.6,0c-1.8,1.6-1.2,4.6-3.1,6.4
				c-2.1,0.5-4.2,0.4-7.2-0.1c4.5-13.1,8.9-26,13.4-39c1.9,0,3.7,0,6,0C420.2,84.2,424.7,97.1,429.3,110.5z M408.4,97.3
				c3.3-0.4,6,0.4,8.9-0.7c-1.4-4.2-2.6-8-4.3-13.1C411.3,88.7,410,92.5,408.4,97.3z"/>
			<path d="M273.6,56.9c-2.2,0.4-4.5,0.4-7.3-0.1c4.5-13,8.8-25.8,13.2-38.4c2-1.2,3.8-0.8,6.2-0.5c4.4,12.7,8.9,25.7,13.4,38.7
				c-2.6,1-4.8,0.5-7.5,0.4c-0.8-2.1-1.5-4.2-2.4-6.5c-4.1,0-8.2,0-12.7,0C274.8,52,275.3,54.9,273.6,56.9z M278.5,43
				c3.3,0,5.8,0,8.7,0c-1.4-4.3-2.7-8.1-4.4-13.2C281.1,35,279.8,38.8,278.5,43z"/>
			<path d="M359.3,51.8c2-1.6,3.5-2.9,5.3-4.3c2.9,2.3,6.5,3.2,10.4,2.7c2.8-0.3,4.8-1.8,4.8-4.7c0-2.7-1.7-4.1-4.4-4.4
				c-1.6-0.2-3.3-0.6-4.9-0.9c-6.2-1.2-9.2-4.5-9.4-10.3c-0.2-6,2.9-10.3,8.5-11.9c6-1.6,11.5-0.7,16.3,3.5c-0.8,2.2-2.5,3.5-4.4,5
				c-2.6-1.8-5.6-2.8-8.8-2.3c-2.7,0.4-4.3,2-4.4,4.6c-0.1,2.5,1.7,3.8,4,4.3c1.6,0.3,3.3,0.6,4.9,0.9c6.7,1.3,9.5,4.1,9.8,9.9
				c0.4,6.7-2.4,11.2-8.7,12.7C371.5,58.2,365.1,57.7,359.3,51.8z"/>
			<path d="M208.6,51.8c1.9-1.7,3.4-3,5.1-4.5c4.7,3.1,9.7,4.5,14.6,1.1c0.9-1.9,0.9-3.4,0.4-5c-1.9-3.2-5.5-2.5-8.4-3.1
				c-6.8-1.5-9.9-4.7-9.9-11c0-6.2,3.6-10.7,10-11.8c5.4-0.9,10.6-0.1,14.8,4c-0.6,2.1-2.4,3.1-3.7,4.5c-10.9-3.5-14-2.4-13.2,4.9
				c2.2,2.9,5.7,2.3,8.7,3c6.4,1.5,9.1,4.2,9.6,10.3c0.4,5.9-2.4,10.4-8.2,12.1C221.4,58.3,214.8,57.8,208.6,51.8z"/>
			<path d="M791.8,83.4c-2.5,0-4.6,0-6.6,0c-1.3-0.4-1.3-1.6-1.8-2.4c-1.5-2.4-3.7-3.3-6.4-2.8c-2.6,0.4-4.2,2.2-4.6,4.6
				c-0.9,5.4-0.9,10.9,0,16.4c0.4,2.7,2.3,4.4,5,4.8c4.1,0.5,5.8-2.4,7.3-5.5c2.3,0,4.5,0,6.6,0c-0.3,7.1-5,12.1-12,12.6
				c-7,0.5-13.3-3.9-14.3-10.4c-1-6.4-1-13,0-19.4c1-6,6.5-10.1,13-10.2C785.5,71.1,789.7,74.6,791.8,83.4z"/>
			<path d="M696.7,94.9c0,5.6,0,10.6,0,15.5c-2.6,0.7-4.9,0.8-7.4,0c0-12.8,0-25.5,0-38.7c8,0,16,0,24.2,0c0.6,2,0.5,4.1,0,6.6
				c-5.4,0-10.9,0-16.5,0c0,3.4,0,6.3,0,9.6c4.8,0,9.4,0,13.9,0c0.6,2.6,0.5,4.6,0,7C706.3,94.9,701.9,94.9,696.7,94.9z"/>
			<path d="M727.3,78.2c0,3.4,0,6.1,0,9.2c4.6,1.3,9.4-0.1,14.1,0.8c0.8,2,0.4,4,0.3,6.2c-4.6,1.3-9.5-0.1-14.5,0.9
				c0,5,0,9.9,0,14.7c-2.4,1.4-4.5,0.7-7,0.7c0-13.1,0-26.1,0-39.3c7.9,0,15.6,0,23.5,0c1.3,1.9,0.6,4,0.5,6.7
				C738.6,78.2,733,78.2,727.3,78.2z"/>
			<path d="M249.9,24.7c-3.2,0-5.8,0-8.6,0c-1.1-2.4-0.7-4.6-0.3-6.9c8.8,0,17.4,0,25.9,0c1.4,2.1,0.4,4.1,0.8,6
				c-3.1,1.8-6.5,0.1-9.7,1.4c0,10.3,0,20.8,0,31.1c-2.3,1.5-4.5,0.6-7.2,0.9C249.5,46.5,250.9,35.8,249.9,24.7z"/>
			<path d="M120.5,57c-2.9,0-4.9,0-7.4,0c0-10.6,0-21.2,0-32.1c-3.5-0.2-6.6-0.3-9.6-0.5c-0.7-2.2-0.5-4.1-0.1-6.4
				c8.7,0,17.4,0,26.2,0c0.7,2,0.4,4,0.2,6.1c-2.8,1.3-5.9-0.1-9.3,1.1C120.5,35.5,120.5,46.1,120.5,57z"/>
			<path d="M103.8,71.6c0.5,2.2,0.6,4.3-0.1,6.7c-2.8,0-5.6,0-8.9,0c0,10.8,0,21.3,0,31.7c-2.7,1.6-5,0.7-7.6,1c0-11,0-21.5,0-32
				c-3.3-1.4-6.3-0.1-9.3-1c-1-2-0.6-4-0.2-6.4C86.2,71.6,94.8,71.6,103.8,71.6z"/>
			<path d="M315.1,57c-2.8,0-4.8,0-7.3,0c0-10.7,0-21.3,0-32.1c-3.5-0.2-6.5-0.3-9.4-0.4c-0.7-2.2-0.6-4.3,0-6.6
				c8.7,0,17.3,0,25.9,0c1,2.2,0.7,4.3,0.2,6.7c-3,0-5.9,0-9.4,0C315.1,35.5,315.1,46,315.1,57z"/>
			<path d="M175.2,71.5c9,0,17.6,0,26.3,0c0.9,2.1,0.5,4.1,0.3,6.6c-3,0-5.9,0-9.4,0c0,11,0,21.5,0,31.9c-2.5,1.5-4.7,0.6-7.2,1
				c0-10.9,0-21.5,0-32.6c-3.5,0-6.5,0-9.5,0C174.6,76,175.1,74,175.2,71.5z"/>
			<path d="M349.3,110.7c-2.8,0-4.8,0-7.2,0c0-10.6,0-21.1,0-31.7c-3.4-1.5-6.7-0.2-9.9-1.1c0-2.1,0-4.1,0-6.4c8.8,0,17.4,0,26.1,0
				c1.1,2,0.5,4.1,0.4,6.6c-3,0-5.9,0-9.4,0C349.3,89,349.3,99.6,349.3,110.7z"/>
			<path d="M757.3,110.5c-2.3,0.8-4.4,0.5-6.9,0.2c0-12.9,0-25.8,0-38.9c2-1.1,4.3-0.4,6.9-0.4C757.3,84.3,757.3,97.2,757.3,110.5z"
				/>
			<path d="M90.3,56.9c0-13.2,0-26,0-38.8c2.5-0.8,4.7-0.5,7.2-0.2c0,13.1,0,25.8,0,38.8C95.3,57.5,93,57.1,90.3,56.9z"/>
			<path class="st0" d="M664.2,292.2c0.5-10.8,0.3-21.6,3.7-32.1c4.6-14.2,15.5-22.4,30-22.5c14.6-0.1,25.7,7.9,30.5,21.9
				c1.7,4.9,2.7,10,2.9,15.1c0.9,16.1,2,32.3-2.3,48.1c-4.4,16.2-16,25-31.8,24.7c-15-0.3-26.3-9.8-30.3-25.5
				C664.5,312.1,664.6,302.1,664.2,292.2z"/>
		</g>
	</g>
</g>
</svg>
